<svg xmlns="http://www.w3.org/2000/svg" xmlns:xlink="http://www.w3.org/1999/xlink" width="40" zoomAndPan="magnify" viewBox="0 0 30 30.000001" height="40" preserveAspectRatio="xMidYMid meet" version="1.0"><defs><clipPath id="634f0d7590"><path d="M 0.484375 1.542969 L 29.515625 1.542969 L 29.515625 27.671875 L 0.484375 27.671875 Z M 0.484375 1.542969 " clip-rule="nonzero"/></clipPath></defs><path fill="#05a9e3" d="M 23.203125 4.804688 L 3.652344 4.804688 L 3.652344 13.679688 L 23.203125 13.679688 L 23.203125 4.804688 " fill-opacity="1" fill-rule="nonzero"/><g clip-path="url(#634f0d7590)"><path fill="#05a9e3" d="M 24.667969 15.15625 L 2.1875 15.15625 L 2.1875 3.324219 L 24.667969 3.324219 Z M 23.933594 19.253906 L 18.710938 19.253906 L 18.710938 18.269531 L 23.933594 18.269531 Z M 23.933594 22.1875 L 18.710938 22.1875 L 18.710938 21.199219 L 23.933594 21.199219 Z M 23.933594 25.117188 L 18.710938 25.117188 L 18.710938 24.132812 L 23.933594 24.132812 Z M 16.359375 19.253906 L 2.921875 19.253906 L 2.921875 18.269531 L 16.359375 18.269531 Z M 16.359375 22.1875 L 2.921875 22.1875 L 2.921875 21.199219 L 16.359375 21.199219 Z M 16.359375 25.117188 L 2.921875 25.117188 L 2.921875 24.132812 L 16.359375 24.132812 Z M 29.484375 5.234375 L 29.40625 4.753906 C 29.34375 4.375 28.988281 4.113281 28.621094 4.140625 C 28.242188 4.171875 27.949219 4.492188 27.949219 4.875 L 27.945312 23.84375 C 27.960938 24.015625 27.96875 24.726562 27.652344 25.070312 C 27.597656 25.125 27.441406 25.292969 26.980469 25.277344 C 26.394531 25.253906 26.355469 24.3125 26.355469 24.292969 L 26.355469 2.285156 C 26.355469 1.875 26.027344 1.546875 25.621094 1.546875 L 1.238281 1.546875 C 0.832031 1.546875 0.503906 1.875 0.503906 2.285156 L 0.503906 24.472656 C 0.503906 25.703125 0.859375 26.605469 1.558594 27.152344 C 2.097656 27.574219 2.707031 27.675781 3.164062 27.675781 C 3.417969 27.675781 3.621094 27.644531 3.742188 27.621094 L 26.464844 27.621094 C 28.6875 27.621094 29.496094 25.796875 29.496094 24.570312 L 29.496094 5.355469 C 29.496094 5.3125 29.492188 5.273438 29.484375 5.234375 " fill-opacity="1" fill-rule="nonzero"/></g></svg>