<svg xmlns="http://www.w3.org/2000/svg" xmlns:xlink="http://www.w3.org/1999/xlink" width="40" zoomAndPan="magnify" viewBox="0 0 30 30.000001" height="40" preserveAspectRatio="xMidYMid meet" version="1.0"><defs><clipPath id="13ea8a6d8d"><path d="M 0.484375 0 L 29.515625 0 L 29.515625 29.03125 L 0.484375 29.03125 Z M 0.484375 0 " clip-rule="nonzero"/></clipPath></defs><g clip-path="url(#13ea8a6d8d)"><path fill="#05a9e3" d="M 15 29.03125 C 23.015625 29.03125 29.515625 22.53125 29.515625 14.515625 C 29.515625 6.5 23.015625 0 15 0 C 6.984375 0 0.484375 6.5 0.484375 14.515625 C 0.484375 22.53125 6.984375 29.03125 15 29.03125 Z M 13.632812 7.546875 C 12.753906 7.546875 11.949219 8.046875 11.558594 8.832031 L 11.25 9.441406 C 11.121094 9.707031 10.851562 9.871094 10.558594 9.871094 L 9.582031 9.871094 C 8.296875 9.871094 7.257812 10.910156 7.257812 12.195312 L 7.257812 19.160156 C 7.257812 20.445312 8.296875 21.484375 9.582031 21.484375 L 20.417969 21.484375 C 21.703125 21.484375 22.742188 20.445312 22.742188 19.160156 L 22.742188 12.195312 C 22.742188 10.910156 21.703125 9.871094 20.417969 9.871094 L 19.441406 9.871094 C 19.148438 9.871094 18.878906 9.707031 18.75 9.441406 L 18.441406 8.832031 C 18.050781 8.046875 17.246094 7.546875 16.367188 7.546875 Z M 15 12.96875 C 13.71875 12.96875 12.675781 14.007812 12.675781 15.289062 C 12.675781 16.574219 13.71875 17.613281 15 17.613281 C 16.28125 17.613281 17.324219 16.574219 17.324219 15.289062 C 17.324219 14.007812 16.28125 12.96875 15 12.96875 Z M 11.128906 15.289062 C 11.128906 13.152344 12.863281 11.417969 15 11.417969 C 17.136719 11.417969 18.871094 13.152344 18.871094 15.289062 C 18.871094 17.429688 17.136719 19.160156 15 19.160156 C 12.863281 19.160156 11.128906 17.429688 11.128906 15.289062 Z M 11.128906 15.289062 " fill-opacity="1" fill-rule="evenodd"/></g></svg>