<svg xmlns="http://www.w3.org/2000/svg" xmlns:xlink="http://www.w3.org/1999/xlink" width="500" zoomAndPan="magnify" viewBox="0 0 375 374.999991" height="500" preserveAspectRatio="xMidYMid meet" version="1.0"><defs><g/><clipPath id="47c33330f3"><path d="M 107.046875 59.179688 L 148 59.179688 L 148 100 L 107.046875 100 Z M 107.046875 59.179688 " clip-rule="nonzero"/></clipPath><clipPath id="b542b9edb9"><path d="M 228 59.179688 L 268.886719 59.179688 L 268.886719 100 L 228 100 Z M 228 59.179688 " clip-rule="nonzero"/></clipPath><clipPath id="304c7587e8"><path d="M 107.046875 180 L 148 180 L 148 221.019531 L 107.046875 221.019531 Z M 107.046875 180 " clip-rule="nonzero"/></clipPath><clipPath id="1d65b96029"><path d="M 228 180 L 268.886719 180 L 268.886719 221.019531 L 228 221.019531 Z M 228 180 " clip-rule="nonzero"/></clipPath></defs><path fill="#ebebeb" d="M 187.96875 187.300781 C 164.785156 187.300781 141.558594 175.59375 118.941406 152.507812 C 112.117188 145.554688 112.117188 134.648438 118.941406 127.691406 C 164.183594 81.511719 211.757812 81.511719 257 127.691406 C 263.824219 134.644531 263.824219 145.539062 257 152.507812 C 234.375 175.59375 211.152344 187.300781 187.96875 187.300781 Z M 187.96875 187.300781 " fill-opacity="1" fill-rule="nonzero"/><path fill="#000000" d="M 187.96875 167.070312 C 173.09375 167.070312 160.996094 154.972656 160.996094 140.097656 C 160.996094 125.222656 173.09375 113.125 187.96875 113.125 C 202.84375 113.125 214.941406 125.222656 214.941406 140.097656 C 214.941406 154.972656 202.84375 167.070312 187.96875 167.070312 Z M 187.96875 167.070312 " fill-opacity="1" fill-rule="nonzero"/><g clip-path="url(#47c33330f3)"><path fill="#05a9e3" d="M 113.792969 99.636719 C 110.0625 99.636719 107.046875 96.625 107.046875 92.894531 L 107.046875 86.152344 C 107.046875 71.277344 119.144531 59.179688 134.019531 59.179688 L 140.765625 59.179688 C 144.492188 59.179688 147.507812 62.191406 147.507812 65.921875 C 147.507812 69.652344 144.492188 72.664062 140.765625 72.664062 L 134.019531 72.664062 C 126.582031 72.664062 120.535156 78.714844 120.535156 86.152344 L 120.535156 92.894531 C 120.535156 96.625 117.519531 99.636719 113.792969 99.636719 Z M 113.792969 99.636719 " fill-opacity="1" fill-rule="nonzero"/></g><g clip-path="url(#b542b9edb9)"><path fill="#05a9e3" d="M 262.144531 99.636719 C 258.414062 99.636719 255.402344 96.625 255.402344 92.894531 L 255.402344 86.152344 C 255.402344 78.714844 249.351562 72.664062 241.914062 72.664062 L 235.171875 72.664062 C 231.441406 72.664062 228.425781 69.652344 228.425781 65.921875 C 228.425781 62.191406 231.441406 59.179688 235.171875 59.179688 L 241.914062 59.179688 C 256.789062 59.179688 268.886719 71.277344 268.886719 86.152344 L 268.886719 92.894531 C 268.886719 96.625 265.875 99.636719 262.144531 99.636719 Z M 262.144531 99.636719 " fill-opacity="1" fill-rule="nonzero"/></g><g clip-path="url(#304c7587e8)"><path fill="#05a9e3" d="M 140.765625 221.019531 L 134.019531 221.019531 C 119.144531 221.019531 107.046875 208.921875 107.046875 194.042969 L 107.046875 187.300781 C 107.046875 183.574219 110.0625 180.558594 113.792969 180.558594 C 117.519531 180.558594 120.535156 183.574219 120.535156 187.300781 L 120.535156 194.042969 C 120.535156 201.484375 126.582031 207.53125 134.019531 207.53125 L 140.765625 207.53125 C 144.492188 207.53125 147.507812 210.546875 147.507812 214.273438 C 147.507812 218.003906 144.492188 221.019531 140.765625 221.019531 Z M 140.765625 221.019531 " fill-opacity="1" fill-rule="nonzero"/></g><g clip-path="url(#1d65b96029)"><path fill="#05a9e3" d="M 241.914062 221.019531 L 235.171875 221.019531 C 231.441406 221.019531 228.425781 218.003906 228.425781 214.273438 C 228.425781 210.546875 231.441406 207.53125 235.171875 207.53125 L 241.914062 207.53125 C 249.351562 207.53125 255.402344 201.484375 255.402344 194.042969 L 255.402344 187.300781 C 255.402344 183.574219 258.414062 180.558594 262.144531 180.558594 C 265.875 180.558594 268.886719 183.574219 268.886719 187.300781 L 268.886719 194.042969 C 268.886719 208.921875 256.789062 221.019531 241.914062 221.019531 Z M 241.914062 221.019531 " fill-opacity="1" fill-rule="nonzero"/></g><g fill="#000000" fill-opacity="1"><g transform="translate(0.867002, 297.171401)"><g><path d="M 18.242188 0.609375 L 23.597656 0.746094 L 24.953125 0.609375 L 26.3125 0.269531 L 27.667969 0.0664062 L 29.023438 -0.476562 L 30.242188 -0.609375 L 31.53125 -1.21875 L 36.144531 -4 L 38.109375 -6.035156 L 38.789062 -6.984375 L 39.535156 -8.476562 L 39.941406 -9.695312 L 40.347656 -10.851562 L 40.753906 -14.242188 L 40.617188 -16.410156 L 39.601562 -20.34375 L 38.855469 -21.429688 L 37.09375 -23.460938 L 35.871094 -24.546875 L 34.785156 -25.089844 L 33.566406 -25.835938 L 28.277344 -27.464844 L 26.921875 -27.667969 L 25.566406 -27.734375 L 24.140625 -28.003906 L 22.175781 -28.003906 L 18.582031 -28.75 L 16.070312 -29.972656 L 15.054688 -30.921875 L 14.78125 -32.957031 L 15.121094 -34.785156 L 15.933594 -35.667969 L 16.953125 -36.414062 L 18.039062 -37.023438 L 19.257812 -37.296875 L 21.429688 -37.363281 L 23.597656 -37.09375 L 24.820312 -36.753906 L 26.039062 -35.941406 L 27.191406 -34.992188 L 28.210938 -33.632812 L 29.699219 -32.753906 L 32.886719 -33.023438 L 34.71875 -32.886719 L 36.074219 -32.886719 L 37.296875 -32.753906 L 38.585938 -33.703125 L 39.125 -34.855469 L 38.855469 -36.144531 L 38.71875 -37.429688 L 36.820312 -40.957031 L 35.328125 -42.992188 L 30.855469 -46.113281 L 27.054688 -47.398438 L 24.410156 -47.941406 L 19.191406 -48.078125 L 17.699219 -47.671875 L 16.34375 -47.601562 L 15.121094 -47.398438 L 12.546875 -46.585938 L 10.238281 -45.230469 L 6.984375 -42.992188 L 4.609375 -39.804688 L 3.390625 -36.074219 L 3.1875 -32.753906 L 3.253906 -30.652344 L 3.730469 -27.9375 L 4.816406 -25.566406 L 7.324219 -22.445312 L 11.933594 -19.9375 L 14.375 -19.121094 L 25.023438 -17.902344 L 27.464844 -16.75 L 28.34375 -15.933594 L 28.75 -14.242188 L 28.210938 -12.546875 L 27.328125 -11.527344 L 25.023438 -10.511719 L 22.921875 -10.375 L 21.699219 -10.171875 L 18.242188 -10.511719 L 17.089844 -11.121094 L 15.933594 -11.867188 L 13.699219 -14.308594 L 12.339844 -14.851562 L 11.121094 -14.714844 L 9.832031 -14.917969 L 4.609375 -14.648438 L 3.390625 -14.105469 L 2.847656 -12.679688 L 3.050781 -11.324219 L 3.324219 -9.96875 L 3.730469 -8.746094 L 5.019531 -6.238281 L 5.96875 -5.355469 L 6.847656 -4.339844 L 9.222656 -2.847656 L 10.171875 -1.832031 L 11.460938 -1.21875 L 12.816406 -0.8125 L 15.460938 0.136719 Z M 18.242188 0.609375 "/></g></g></g><g fill="#000000" fill-opacity="1"><g transform="translate(44.127496, 297.171401)"><g><path d="M 40.007812 0.136719 L 42.585938 -0.0664062 L 43.875 0.0664062 L 45.976562 0 L 47.875 -0.339844 L 48.078125 -1.964844 L 47.601562 -3.527344 L 46.585938 -6.035156 L 44.753906 -9.5625 L 43.804688 -12.070312 L 42.449219 -14.511719 L 39.871094 -20.683594 L 39.195312 -21.699219 L 38.515625 -22.988281 L 38.109375 -24.480469 L 37.5 -25.496094 L 37.09375 -26.582031 L 35.667969 -29.089844 L 35.195312 -30.515625 L 30.71875 -39.941406 L 30.3125 -41.296875 L 29.566406 -42.515625 L 29.160156 -43.738281 L 27.871094 -46.113281 L 26.71875 -47.332031 L 24.480469 -48.011719 L 22.308594 -47.265625 L 21.089844 -46.113281 L 20.480469 -44.957031 L 20.003906 -43.601562 L 19.394531 -42.652344 L 16.679688 -36.414062 L 15.933594 -35.398438 L 15.597656 -34.042969 L 14.851562 -32.753906 L 14.445312 -31.53125 L 7.527344 -17.019531 L 7.121094 -15.527344 L 6.441406 -14.511719 L 5.96875 -13.15625 L 4.746094 -10.984375 L 3.730469 -8.273438 L 2.984375 -7.324219 L 2.644531 -6.101562 L 1.289062 -3.390625 L 0.882812 -2.035156 L 1.21875 -0.339844 L 2.578125 0.0664062 L 5.222656 -0.0664062 L 6.578125 0.0664062 L 10.375 -0.0664062 L 11.933594 -0.542969 L 13.222656 -1.761719 L 14.445312 -4 L 15.730469 -5.289062 L 17.15625 -6.035156 L 18.445312 -5.832031 L 21.292969 -6.101562 L 22.511719 -5.898438 L 29.160156 -5.96875 L 30.378906 -5.832031 L 31.871094 -6.035156 L 33.363281 -5.289062 L 34.652344 -4.203125 L 35.261719 -2.914062 L 35.667969 -1.695312 L 37.023438 -0.679688 L 38.585938 0 Z M 24.617188 -16.75 L 23.257812 -17.019531 L 21.699219 -16.886719 L 20.613281 -17.359375 L 20.546875 -18.648438 L 23.734375 -25.972656 L 24.480469 -26.582031 L 25.429688 -26.039062 L 28.617188 -18.582031 L 28.34375 -17.359375 L 27.328125 -16.816406 Z M 24.617188 -16.75 "/></g></g></g><g fill="#000000" fill-opacity="1"><g transform="translate(93.354951, 297.171401)"><g><path d="M 40.007812 -1.152344 L 41.839844 -0.0664062 L 43.738281 0.136719 L 45.230469 -0.339844 L 45.90625 -1.695312 L 46.042969 -26.445312 L 45.839844 -27.597656 L 45.839844 -34.3125 L 46.042969 -35.941406 L 45.839844 -45.367188 L 45.160156 -46.722656 L 43.804688 -47.46875 L 35.398438 -47.398438 L 34.109375 -46.652344 L 33.363281 -45.230469 L 33.296875 -43.804688 L 33.5 -42.722656 L 33.296875 -39.871094 L 33.429688 -38.382812 L 33.296875 -26.242188 L 32.886719 -25.089844 L 31.871094 -25.566406 L 27.054688 -30.378906 L 25.15625 -31.871094 L 11.800781 -45.367188 L 10.78125 -46.179688 L 9.222656 -46.992188 L 7.1875 -47.46875 L 5.628906 -46.789062 L 5.019531 -45.5 L 5.019531 -24.953125 L 4.949219 -23.800781 L 5.085938 -21.019531 L 4.882812 -19.867188 L 5.019531 -8.746094 L 4.882812 -7.460938 L 5.019531 -1.761719 L 5.628906 -0.476562 L 7.050781 0 L 9.832031 0.136719 L 11.324219 0 L 13.96875 0.203125 L 15.394531 0.136719 L 16.75 -0.542969 L 17.425781 -2.644531 L 17.496094 -19.800781 L 17.628906 -21.15625 L 18.105469 -22.308594 L 18.988281 -21.96875 L 19.867188 -20.816406 L 24.683594 -16.207031 L 25.566406 -15.191406 L 26.71875 -14.445312 L 37.226562 -4 L 38.992188 -2.035156 Z M 40.007812 -1.152344 "/></g></g></g><g fill="#000000" fill-opacity="1"><g transform="translate(144.480974, 297.171401)"><g><path d="M 40.007812 0.136719 L 42.585938 -0.0664062 L 43.875 0.0664062 L 45.976562 0 L 47.875 -0.339844 L 48.078125 -1.964844 L 47.601562 -3.527344 L 46.585938 -6.035156 L 44.753906 -9.5625 L 43.804688 -12.070312 L 42.449219 -14.511719 L 39.871094 -20.683594 L 39.195312 -21.699219 L 38.515625 -22.988281 L 38.109375 -24.480469 L 37.5 -25.496094 L 37.09375 -26.582031 L 35.667969 -29.089844 L 35.195312 -30.515625 L 30.71875 -39.941406 L 30.3125 -41.296875 L 29.566406 -42.515625 L 29.160156 -43.738281 L 27.871094 -46.113281 L 26.71875 -47.332031 L 24.480469 -48.011719 L 22.308594 -47.265625 L 21.089844 -46.113281 L 20.480469 -44.957031 L 20.003906 -43.601562 L 19.394531 -42.652344 L 16.679688 -36.414062 L 15.933594 -35.398438 L 15.597656 -34.042969 L 14.851562 -32.753906 L 14.445312 -31.53125 L 7.527344 -17.019531 L 7.121094 -15.527344 L 6.441406 -14.511719 L 5.96875 -13.15625 L 4.746094 -10.984375 L 3.730469 -8.273438 L 2.984375 -7.324219 L 2.644531 -6.101562 L 1.289062 -3.390625 L 0.882812 -2.035156 L 1.21875 -0.339844 L 2.578125 0.0664062 L 5.222656 -0.0664062 L 6.578125 0.0664062 L 10.375 -0.0664062 L 11.933594 -0.542969 L 13.222656 -1.761719 L 14.445312 -4 L 15.730469 -5.289062 L 17.15625 -6.035156 L 18.445312 -5.832031 L 21.292969 -6.101562 L 22.511719 -5.898438 L 29.160156 -5.96875 L 30.378906 -5.832031 L 31.871094 -6.035156 L 33.363281 -5.289062 L 34.652344 -4.203125 L 35.261719 -2.914062 L 35.667969 -1.695312 L 37.023438 -0.679688 L 38.585938 0 Z M 24.617188 -16.75 L 23.257812 -17.019531 L 21.699219 -16.886719 L 20.613281 -17.359375 L 20.546875 -18.648438 L 23.734375 -25.972656 L 24.480469 -26.582031 L 25.429688 -26.039062 L 28.617188 -18.582031 L 28.34375 -17.359375 L 27.328125 -16.816406 Z M 24.617188 -16.75 "/></g></g></g><g fill="#000000" fill-opacity="1"><g transform="translate(239.946447, 297.171401)"><g><path d="M 24.484375 -10.578125 C 24.890625 -10.578125 25.21875 -10.101562 25.46875 -9.15625 C 25.71875 -8.207031 25.84375 -6.941406 25.84375 -5.359375 C 25.84375 -3.734375 25.71875 -2.429688 25.46875 -1.453125 C 25.21875 -0.484375 24.890625 0 24.484375 0 L 4.953125 0 L 4.953125 -51.0625 L 17.015625 -51.0625 L 17.015625 -10.578125 Z M 24.484375 -10.578125 "/></g></g></g><g fill="#000000" fill-opacity="1"><g transform="translate(265.306206, 297.171401)"><g><path d="M 29.5625 -10.578125 C 30.019531 -10.578125 30.359375 -10.113281 30.578125 -9.1875 C 30.804688 -8.257812 30.921875 -6.984375 30.921875 -5.359375 C 30.921875 -3.679688 30.804688 -2.367188 30.578125 -1.421875 C 30.359375 -0.472656 30.019531 0 29.5625 0 L 26.046875 0 C 21.835938 0 18.46875 -1.148438 15.9375 -3.453125 C 13.363281 -1.148438 9.789062 0 5.21875 0 L 0 0 C -0.445312 0 -0.785156 -0.472656 -1.015625 -1.421875 C -1.242188 -2.367188 -1.359375 -3.679688 -1.359375 -5.359375 C -1.359375 -6.984375 -1.242188 -8.257812 -1.015625 -9.1875 C -0.785156 -10.113281 -0.445312 -10.578125 0 -10.578125 L 3.53125 -10.578125 C 5.382812 -10.578125 6.679688 -11.015625 7.421875 -11.890625 C 8.171875 -12.773438 8.546875 -14.210938 8.546875 -16.203125 L 8.546875 -34.921875 L 20.609375 -34.921875 L 20.609375 -16.140625 C 20.609375 -14.785156 20.5 -13.382812 20.28125 -11.9375 C 21.175781 -11.03125 22.460938 -10.578125 24.140625 -10.578125 Z M 14.59375 -39.734375 C 12.875 -39.734375 11.445312 -40.296875 10.3125 -41.421875 C 9.1875 -42.554688 8.625 -44.003906 8.625 -45.765625 C 8.625 -47.523438 9.1875 -48.96875 10.3125 -50.09375 C 11.445312 -51.226562 12.875 -51.796875 14.59375 -51.796875 C 16.300781 -51.796875 17.71875 -51.226562 18.84375 -50.09375 C 19.976562 -48.96875 20.546875 -47.523438 20.546875 -45.765625 C 20.546875 -44.003906 19.976562 -42.554688 18.84375 -41.421875 C 17.71875 -40.296875 16.300781 -39.734375 14.59375 -39.734375 Z M 14.59375 -39.734375 "/></g></g></g><g fill="#000000" fill-opacity="1"><g transform="translate(321.72294, 295.408336)"><g><path d="M 21.703125 -37.96875 L 1.359375 -37.96875 L 1.359375 -43.265625 L 21.703125 -43.265625 Z M 21.703125 -37.96875 "/></g></g></g><g fill="#000000" fill-opacity="1"><g transform="translate(295.751429, 297.171401)"><g><path d="M 55.0625 -34.921875 L 67.140625 -34.921875 L 67.140625 -16.140625 C 67.140625 -10.710938 65.789062 -6.664062 63.09375 -4 C 60.40625 -1.332031 56.210938 0 50.515625 0 C 45.410156 0 41.566406 -1.109375 38.984375 -3.328125 C 36.316406 -1.109375 32.363281 0 27.125 0 C 21.925781 0 18.0625 -1.128906 15.53125 -3.390625 C 12.769531 -1.128906 8.789062 0 3.59375 0 L 0 0 C -0.445312 0 -0.785156 -0.472656 -1.015625 -1.421875 C -1.242188 -2.367188 -1.359375 -3.679688 -1.359375 -5.359375 C -1.359375 -6.984375 -1.242188 -8.257812 -1.015625 -9.1875 C -0.785156 -10.113281 -0.445312 -10.578125 0 -10.578125 L 2.234375 -10.578125 C 4.546875 -10.578125 6.109375 -10.984375 6.921875 -11.796875 C 7.734375 -12.609375 8.140625 -14.078125 8.140625 -16.203125 L 8.140625 -28.140625 L 20.203125 -28.140625 L 20.203125 -16.140625 C 20.203125 -14.734375 20.09375 -13.304688 19.875 -11.859375 C 20.414062 -11.410156 21.113281 -11.082031 21.96875 -10.875 C 22.832031 -10.675781 23.960938 -10.578125 25.359375 -10.578125 C 27.078125 -10.578125 28.390625 -10.734375 29.296875 -11.046875 C 30.203125 -11.367188 30.820312 -11.925781 31.15625 -12.71875 C 31.5 -13.507812 31.671875 -14.671875 31.671875 -16.203125 L 31.671875 -31.53125 L 43.734375 -31.53125 L 43.734375 -16.140625 C 43.734375 -14.691406 43.625 -13.222656 43.40625 -11.734375 C 44.4375 -10.960938 46.21875 -10.578125 48.75 -10.578125 C 50.46875 -10.578125 51.78125 -10.734375 52.6875 -11.046875 C 53.59375 -11.367188 54.210938 -11.925781 54.546875 -12.71875 C 54.890625 -13.507812 55.0625 -14.671875 55.0625 -16.203125 Z M 55.0625 -34.921875 "/></g></g></g></svg>