<svg xmlns="http://www.w3.org/2000/svg" xmlns:xlink="http://www.w3.org/1999/xlink" width="40" zoomAndPan="magnify" viewBox="0 0 30 30.000001" height="40" preserveAspectRatio="xMidYMid meet" version="1.0"><defs><clipPath id="e7aa162089"><path d="M 0.484375 0 L 8 0 L 8 8 L 0.484375 8 Z M 0.484375 0 " clip-rule="nonzero"/></clipPath><clipPath id="bcb39c7024"><path d="M 22 0 L 29.515625 0 L 29.515625 8 L 22 8 Z M 22 0 " clip-rule="nonzero"/></clipPath><clipPath id="43c4aad259"><path d="M 0.484375 21 L 8 21 L 8 29.03125 L 0.484375 29.03125 Z M 0.484375 21 " clip-rule="nonzero"/></clipPath><clipPath id="3af9048bbc"><path d="M 22 21 L 29.515625 21 L 29.515625 29.03125 L 22 29.03125 Z M 22 21 " clip-rule="nonzero"/></clipPath></defs><path fill="#ebebeb" d="M 15 22.984375 C 10.839844 22.984375 6.675781 20.882812 2.617188 16.742188 C 1.394531 15.496094 1.394531 13.539062 2.617188 12.289062 C 10.734375 4.007812 19.269531 4.007812 27.382812 12.289062 C 28.609375 13.539062 28.609375 15.492188 27.382812 16.742188 C 23.324219 20.882812 19.160156 22.984375 15 22.984375 Z M 15 22.984375 " fill-opacity="1" fill-rule="nonzero"/><path fill="#161616" d="M 15 19.355469 C 12.332031 19.355469 10.160156 17.183594 10.160156 14.515625 C 10.160156 11.847656 12.332031 9.675781 15 9.675781 C 17.667969 9.675781 19.839844 11.847656 19.839844 14.515625 C 19.839844 17.183594 17.667969 19.355469 15 19.355469 Z M 15 19.355469 " fill-opacity="1" fill-rule="nonzero"/><g clip-path="url(#e7aa162089)"><path fill="#05a9e3" d="M 1.695312 7.257812 C 1.023438 7.257812 0.484375 6.71875 0.484375 6.046875 L 0.484375 4.839844 C 0.484375 2.171875 2.652344 0 5.324219 0 L 6.53125 0 C 7.203125 0 7.742188 0.539062 7.742188 1.210938 C 7.742188 1.878906 7.203125 2.417969 6.53125 2.417969 L 5.324219 2.417969 C 3.988281 2.417969 2.902344 3.503906 2.902344 4.839844 L 2.902344 6.046875 C 2.902344 6.71875 2.363281 7.257812 1.695312 7.257812 Z M 1.695312 7.257812 " fill-opacity="1" fill-rule="nonzero"/></g><g clip-path="url(#bcb39c7024)"><path fill="#05a9e3" d="M 28.304688 7.257812 C 27.636719 7.257812 27.097656 6.71875 27.097656 6.046875 L 27.097656 4.839844 C 27.097656 3.503906 26.011719 2.417969 24.675781 2.417969 L 23.46875 2.417969 C 22.796875 2.417969 22.257812 1.878906 22.257812 1.210938 C 22.257812 0.539062 22.796875 0 23.46875 0 L 24.675781 0 C 27.347656 0 29.515625 2.171875 29.515625 4.839844 L 29.515625 6.046875 C 29.515625 6.71875 28.976562 7.257812 28.304688 7.257812 Z M 28.304688 7.257812 " fill-opacity="1" fill-rule="nonzero"/></g><g clip-path="url(#43c4aad259)"><path fill="#05a9e3" d="M 6.53125 29.03125 L 5.324219 29.03125 C 2.652344 29.03125 0.484375 26.863281 0.484375 24.195312 L 0.484375 22.984375 C 0.484375 22.316406 1.023438 21.773438 1.695312 21.773438 C 2.363281 21.773438 2.902344 22.316406 2.902344 22.984375 L 2.902344 24.195312 C 2.902344 25.527344 3.988281 26.613281 5.324219 26.613281 L 6.53125 26.613281 C 7.203125 26.613281 7.742188 27.152344 7.742188 27.824219 C 7.742188 28.492188 7.203125 29.03125 6.53125 29.03125 Z M 6.53125 29.03125 " fill-opacity="1" fill-rule="nonzero"/></g><g clip-path="url(#3af9048bbc)"><path fill="#05a9e3" d="M 24.675781 29.03125 L 23.46875 29.03125 C 22.796875 29.03125 22.257812 28.492188 22.257812 27.824219 C 22.257812 27.152344 22.796875 26.613281 23.46875 26.613281 L 24.675781 26.613281 C 26.011719 26.613281 27.097656 25.527344 27.097656 24.195312 L 27.097656 22.984375 C 27.097656 22.316406 27.636719 21.773438 28.304688 21.773438 C 28.976562 21.773438 29.515625 22.316406 29.515625 22.984375 L 29.515625 24.195312 C 29.515625 26.863281 27.347656 29.03125 24.675781 29.03125 Z M 24.675781 29.03125 " fill-opacity="1" fill-rule="nonzero"/></g></svg>