<svg xmlns="http://www.w3.org/2000/svg" xmlns:xlink="http://www.w3.org/1999/xlink" width="40" zoomAndPan="magnify" viewBox="0 0 30 30.000001" height="40" preserveAspectRatio="xMidYMid meet" version="1.0"><defs><clipPath id="0e40c9333a"><path d="M 0.484375 0 L 29.515625 0 L 29.515625 29.03125 L 0.484375 29.03125 Z M 0.484375 0 " clip-rule="nonzero"/></clipPath></defs><path fill="#05a9e3" d="M 14.707031 12.847656 C 14.714844 12.660156 14.757812 12.480469 14.835938 12.308594 C 14.914062 12.136719 15.019531 11.984375 15.152344 11.851562 C 15.289062 11.722656 15.441406 11.621094 15.617188 11.546875 C 15.789062 11.472656 15.972656 11.4375 16.160156 11.433594 C 16.355469 11.429688 16.542969 11.464844 16.722656 11.539062 C 16.902344 11.613281 17.0625 11.71875 17.199219 11.859375 C 17.335938 11.996094 17.4375 12.15625 17.507812 12.335938 C 17.582031 12.519531 17.613281 12.707031 17.609375 12.902344 C 17.617188 13.097656 17.585938 13.285156 17.511719 13.46875 C 17.441406 13.652344 17.335938 13.8125 17.195312 13.949219 C 17.054688 14.085938 16.894531 14.1875 16.710938 14.257812 C 16.523438 14.324219 16.335938 14.351562 16.140625 14.339844 C 15.945312 14.339844 15.757812 14.304688 15.574219 14.230469 C 15.394531 14.152344 15.238281 14.046875 15.101562 13.902344 C 14.964844 13.761719 14.863281 13.601562 14.796875 13.417969 C 14.726562 13.234375 14.699219 13.042969 14.707031 12.847656 Z M 14.707031 12.847656 " fill-opacity="1" fill-rule="nonzero"/><path fill="#05a9e3" d="M 18.921875 19.472656 C 18.140625 18.085938 17.339844 16.707031 16.53125 15.332031 C 16.261719 14.875 15.972656 14.953125 15.71875 15.363281 C 15.503906 15.714844 15.296875 16.070312 15.011719 16.554688 C 14.273438 15.285156 13.605469 14.132812 12.9375 12.976562 C 12.6875 12.535156 12.390625 12.285156 12.054688 12.871094 C 10.785156 15.050781 9.523438 17.234375 8.273438 19.417969 C 8.011719 19.878906 8.128906 20.167969 8.695312 20.167969 C 11.964844 20.167969 15.238281 20.167969 18.507812 20.167969 C 18.996094 20.179688 19.171875 19.914062 18.921875 19.472656 Z M 9.15625 19.359375 L 12.449219 13.648438 C 13.125 14.816406 13.734375 15.875 14.347656 16.933594 C 14.960938 17.988281 15.066406 17.96875 15.667969 16.945312 C 15.796875 16.726562 15.929688 16.507812 16.144531 16.15625 C 16.777344 17.246094 17.355469 18.25 18 19.359375 Z M 9.15625 19.359375 " fill-opacity="1" fill-rule="nonzero"/><g clip-path="url(#0e40c9333a)"><path fill="#05a9e3" d="M 15 0 C 14.046875 0 13.101562 0.09375 12.167969 0.277344 C 11.234375 0.464844 10.324219 0.738281 9.445312 1.105469 C 8.5625 1.46875 7.726562 1.917969 6.933594 2.445312 C 6.144531 2.976562 5.410156 3.578125 4.734375 4.25 C 4.0625 4.925781 3.460938 5.660156 2.929688 6.453125 C 2.402344 7.242188 1.953125 8.082031 1.589844 8.960938 C 1.222656 9.839844 0.949219 10.75 0.761719 11.683594 C 0.578125 12.617188 0.484375 13.5625 0.484375 14.515625 C 0.484375 15.46875 0.578125 16.414062 0.761719 17.347656 C 0.949219 18.28125 1.222656 19.191406 1.589844 20.070312 C 1.953125 20.953125 2.402344 21.789062 2.929688 22.582031 C 3.460938 23.375 4.0625 24.105469 4.734375 24.78125 C 5.410156 25.453125 6.144531 26.054688 6.933594 26.585938 C 7.726562 27.117188 8.5625 27.5625 9.445312 27.925781 C 10.324219 28.292969 11.234375 28.566406 12.167969 28.753906 C 13.101562 28.9375 14.046875 29.03125 15 29.03125 C 15.953125 29.03125 16.898438 28.9375 17.832031 28.753906 C 18.765625 28.566406 19.675781 28.292969 20.554688 27.925781 C 21.4375 27.5625 22.273438 27.117188 23.066406 26.585938 C 23.855469 26.054688 24.589844 25.453125 25.265625 24.78125 C 25.9375 24.105469 26.539062 23.375 27.070312 22.582031 C 27.597656 21.789062 28.046875 20.953125 28.410156 20.070312 C 28.777344 19.191406 29.050781 18.28125 29.238281 17.347656 C 29.421875 16.414062 29.515625 15.46875 29.515625 14.515625 C 29.515625 13.5625 29.421875 12.617188 29.238281 11.683594 C 29.050781 10.75 28.777344 9.839844 28.410156 8.960938 C 28.046875 8.082031 27.597656 7.242188 27.070312 6.453125 C 26.539062 5.660156 25.9375 4.925781 25.265625 4.25 C 24.589844 3.578125 23.855469 2.976562 23.066406 2.445312 C 22.273438 1.917969 21.4375 1.46875 20.554688 1.105469 C 19.675781 0.738281 18.765625 0.464844 17.832031 0.277344 C 16.898438 0.09375 15.953125 0 15 0 Z M 23.425781 19.222656 L 21.703125 19.222656 L 21.703125 18.375 C 21.703125 15.570312 21.679688 12.761719 21.71875 9.957031 C 21.730469 9.191406 21.464844 8.996094 20.738281 9 C 17.109375 9.03125 13.480469 9.015625 9.847656 9.015625 L 8.894531 9.015625 L 8.894531 7.230469 L 23.425781 7.230469 Z M 6.324219 9.792969 L 20.84375 9.792969 L 20.84375 21.808594 L 6.324219 21.808594 Z M 6.324219 9.792969 " fill-opacity="1" fill-rule="nonzero"/></g><path fill="#05a9e3" d="M 24.238281 7.183594 C 24.238281 6.671875 24.097656 6.441406 23.539062 6.441406 C 18.617188 6.457031 13.695312 6.457031 8.773438 6.441406 C 8.257812 6.441406 8.089844 6.65625 8.105469 7.140625 C 8.125 7.726562 8.105469 8.3125 8.105469 9.015625 C 7.464844 9.015625 6.90625 9.046875 6.351562 9.015625 C 5.699219 8.96875 5.515625 9.234375 5.519531 9.867188 C 5.542969 13.808594 5.550781 17.753906 5.519531 21.695312 C 5.519531 22.457031 5.792969 22.597656 6.464844 22.589844 C 8.941406 22.5625 11.410156 22.578125 13.886719 22.578125 C 16.207031 22.578125 18.523438 22.558594 20.84375 22.589844 C 21.492188 22.589844 21.730469 22.367188 21.679688 21.738281 C 21.644531 21.207031 21.679688 20.664062 21.679688 20.027344 C 22.390625 20.027344 22.949219 20.007812 23.511719 20.027344 C 24.035156 20.054688 24.25 19.875 24.246094 19.320312 C 24.21875 15.273438 24.214844 11.230469 24.238281 7.183594 Z M 20.851562 21.808594 L 6.324219 21.808594 L 6.324219 9.792969 L 20.84375 9.792969 Z M 23.425781 19.222656 L 21.703125 19.222656 L 21.703125 18.375 C 21.703125 15.570312 21.679688 12.761719 21.71875 9.957031 C 21.730469 9.191406 21.464844 8.996094 20.738281 9 C 17.109375 9.03125 13.480469 9.015625 9.847656 9.015625 L 8.894531 9.015625 L 8.894531 7.230469 L 23.425781 7.230469 Z M 23.425781 19.222656 " fill-opacity="1" fill-rule="nonzero"/><path fill="#05a9e3" d="M 18.921875 19.472656 C 18.140625 18.085938 17.339844 16.707031 16.53125 15.332031 C 16.261719 14.875 15.972656 14.953125 15.71875 15.363281 C 15.503906 15.714844 15.296875 16.070312 15.011719 16.554688 C 14.273438 15.285156 13.605469 14.132812 12.9375 12.976562 C 12.6875 12.535156 12.390625 12.285156 12.054688 12.871094 C 10.785156 15.050781 9.523438 17.234375 8.273438 19.417969 C 8.011719 19.878906 8.128906 20.167969 8.695312 20.167969 C 11.964844 20.167969 15.238281 20.167969 18.507812 20.167969 C 18.996094 20.179688 19.171875 19.914062 18.921875 19.472656 Z M 9.15625 19.359375 L 12.449219 13.648438 C 13.125 14.816406 13.734375 15.875 14.347656 16.933594 C 14.960938 17.988281 15.066406 17.96875 15.667969 16.945312 C 15.796875 16.726562 15.929688 16.507812 16.144531 16.15625 C 16.777344 17.246094 17.355469 18.25 18 19.359375 Z M 9.15625 19.359375 " fill-opacity="1" fill-rule="nonzero"/><path fill="#05a9e3" d="M 16.160156 11.4375 C 15.972656 11.441406 15.789062 11.476562 15.617188 11.550781 C 15.441406 11.625 15.289062 11.726562 15.152344 11.855469 C 15.019531 11.988281 14.914062 12.140625 14.835938 12.3125 C 14.757812 12.484375 14.714844 12.664062 14.707031 12.851562 C 14.699219 13.046875 14.726562 13.238281 14.796875 13.417969 C 14.863281 13.601562 14.964844 13.765625 15.101562 13.90625 C 15.238281 14.046875 15.394531 14.15625 15.578125 14.230469 C 15.757812 14.304688 15.945312 14.339844 16.140625 14.339844 C 16.335938 14.351562 16.523438 14.324219 16.707031 14.257812 C 16.890625 14.1875 17.050781 14.085938 17.191406 13.953125 C 17.332031 13.816406 17.4375 13.65625 17.507812 13.476562 C 17.582031 13.296875 17.613281 13.105469 17.609375 12.914062 C 17.613281 12.71875 17.582031 12.527344 17.511719 12.347656 C 17.441406 12.164062 17.335938 12.003906 17.199219 11.863281 C 17.0625 11.722656 16.90625 11.617188 16.722656 11.542969 C 16.542969 11.46875 16.355469 11.433594 16.160156 11.4375 Z M 16.226562 13.542969 C 15.945312 13.496094 15.710938 13.132812 15.453125 12.910156 C 15.699219 12.667969 15.917969 12.289062 16.199219 12.234375 C 16.410156 12.191406 16.703125 12.558594 17.140625 12.878906 C 16.71875 13.203125 16.441406 13.574219 16.226562 13.542969 Z M 16.226562 13.542969 " fill-opacity="1" fill-rule="nonzero"/><path fill="#05a9e3" d="M 17.140625 12.878906 C 16.71875 13.203125 16.433594 13.574219 16.226562 13.542969 C 15.945312 13.496094 15.710938 13.132812 15.453125 12.910156 C 15.699219 12.667969 15.917969 12.289062 16.199219 12.234375 C 16.417969 12.191406 16.703125 12.570312 17.140625 12.878906 Z M 17.140625 12.878906 " fill-opacity="1" fill-rule="nonzero"/></svg>