<svg xmlns="http://www.w3.org/2000/svg" xmlns:xlink="http://www.w3.org/1999/xlink" width="40" zoomAndPan="magnify" viewBox="0 0 30 30.000001" height="40" preserveAspectRatio="xMidYMid meet" version="1.0"><defs><clipPath id="535ad34c18"><path d="M 0.484375 0 L 29.515625 0 L 29.515625 29 L 0.484375 29 Z M 0.484375 0 " clip-rule="nonzero"/></clipPath></defs><g clip-path="url(#535ad34c18)"><path fill="#05a9e3" d="M 15.347656 4.535156 C 14.65625 4.503906 13.976562 4.753906 13.464844 5.222656 C 12.949219 5.695312 12.648438 6.351562 12.625 7.050781 C 12.597656 7.746094 12.851562 8.421875 13.328125 8.929688 C 13.804688 9.4375 14.464844 9.734375 15.15625 9.753906 C 15.855469 9.773438 16.53125 9.515625 17.035156 9.039062 C 17.539062 8.558594 17.832031 7.898438 17.847656 7.199219 C 17.867188 6.519531 17.613281 5.855469 17.144531 5.355469 C 16.679688 4.859375 16.035156 4.5625 15.347656 4.542969 Z M 13.785156 10.933594 L 11.214844 10.933594 L 11.21875 10.933594 C 11.03125 10.933594 10.847656 10.960938 10.664062 11.011719 C 10.445312 11.058594 10.277344 11.234375 10.246094 11.457031 C 10.183594 11.699219 10.308594 11.949219 10.53125 12.046875 C 10.8125 12.179688 11.105469 12.257812 11.410156 12.285156 C 12.210938 12.320312 12.53125 12.675781 12.410156 13.496094 C 12.1875 15.035156 11.886719 16.5625 11.625 18.097656 C 11.453125 19.136719 11.304688 20.171875 11.136719 21.210938 C 10.90625 22.605469 12.207031 23.914062 13.238281 24.085938 C 13.851562 24.171875 14.472656 24.210938 15.089844 24.207031 C 16.410156 24.203125 17.675781 23.65625 18.582031 22.691406 C 18.746094 22.539062 18.871094 22.347656 18.941406 22.136719 C 18.976562 21.949219 18.933594 21.757812 18.820312 21.605469 C 18.6875 21.523438 18.523438 21.503906 18.371094 21.558594 C 18.132812 21.636719 17.925781 21.796875 17.695312 21.898438 C 17.425781 22.023438 17.140625 22.121094 16.855469 22.183594 C 16.621094 22.242188 16.375 22.195312 16.179688 22.054688 C 15.984375 21.914062 15.859375 21.691406 15.839844 21.453125 C 15.792969 21.1875 15.785156 20.910156 15.816406 20.644531 C 15.914062 19.972656 16.050781 19.3125 16.171875 18.652344 C 16.5 16.847656 16.832031 15.042969 17.171875 13.234375 C 17.261719 12.738281 17.417969 12.253906 17.3125 11.730469 C 17.296875 11.5 17.1875 11.285156 17.015625 11.136719 C 16.839844 10.984375 16.605469 10.910156 16.375 10.933594 Z M 14.882812 0 C 17.730469 0.00390625 20.511719 0.851562 22.875 2.433594 C 25.238281 4.019531 27.082031 6.269531 28.167969 8.898438 C 29.253906 11.53125 29.53125 14.421875 28.972656 17.214844 C 28.414062 20.003906 27.039062 22.566406 25.023438 24.578125 C 23.007812 26.585938 20.441406 27.949219 17.644531 28.5 C 14.855469 29.050781 11.960938 28.757812 9.335938 27.664062 C 6.707031 26.570312 4.464844 24.71875 2.890625 22.347656 C 1.3125 19.980469 0.476562 17.195312 0.484375 14.347656 C 0.492188 10.535156 2.015625 6.886719 4.714844 4.195312 C 7.417969 1.503906 11.074219 -0.00390625 14.882812 0 " fill-opacity="1" fill-rule="nonzero"/></g></svg>