<svg xmlns="http://www.w3.org/2000/svg" xmlns:xlink="http://www.w3.org/1999/xlink" width="40" zoomAndPan="magnify" viewBox="0 0 30 30.000001" height="40" preserveAspectRatio="xMidYMid meet" version="1.0"><defs><clipPath id="9a415af4dd"><path d="M 0.484375 0 L 29.515625 0 L 29.515625 29.03125 L 0.484375 29.03125 Z M 0.484375 0 " clip-rule="nonzero"/></clipPath></defs><path fill="#05a9e3" d="M 9.21875 9.65625 L 8.039062 8.128906 L 8.035156 8.125 C 7.921875 8.195312 7.808594 8.269531 7.699219 8.34375 C 7.667969 8.367188 7.632812 8.386719 7.601562 8.410156 C 7.074219 8.753906 6.574219 9.140625 6.097656 9.5625 C 6.058594 9.59375 6.019531 9.628906 5.976562 9.667969 C 5.898438 9.734375 5.820312 9.808594 5.742188 9.886719 C 5.664062 9.960938 5.582031 10.035156 5.507812 10.113281 C 5.324219 10.292969 5.226562 10.535156 5.226562 10.792969 C 5.226562 11.050781 5.324219 11.289062 5.507812 11.472656 C 5.6875 11.652344 5.929688 11.753906 6.183594 11.753906 C 6.441406 11.753906 6.683594 11.652344 6.867188 11.472656 C 7.574219 10.761719 8.363281 10.15625 9.222656 9.660156 L 9.21875 9.65625 " fill-opacity="1" fill-rule="nonzero"/><path fill="#05a9e3" d="M 18.734375 11.148438 C 17.546875 10.648438 16.292969 10.390625 15 10.390625 C 14.621094 10.390625 14.25 10.414062 13.878906 10.457031 L 13.882812 10.460938 L 15.316406 12.316406 C 15.488281 12.324219 15.660156 12.335938 15.832031 12.355469 C 15.660156 12.335938 15.492188 12.324219 15.316406 12.316406 L 15.320312 12.320312 C 16.238281 12.359375 17.136719 12.558594 17.988281 12.921875 C 18.902344 13.304688 19.71875 13.859375 20.421875 14.558594 C 20.605469 14.742188 20.84375 14.839844 21.101562 14.839844 C 21.359375 14.839844 21.601562 14.742188 21.78125 14.558594 C 21.964844 14.378906 22.0625 14.136719 22.0625 13.882812 C 22.0625 13.625 21.964844 13.382812 21.78125 13.199219 C 20.90625 12.324219 19.878906 11.632812 18.734375 11.148438 " fill-opacity="1" fill-rule="nonzero"/><path fill="#05a9e3" d="M 11.808594 13.003906 L 10.613281 11.457031 L 10.613281 11.453125 C 9.730469 11.90625 8.925781 12.492188 8.21875 13.199219 C 8.035156 13.382812 7.9375 13.625 7.9375 13.882812 C 7.9375 14.136719 8.035156 14.378906 8.21875 14.558594 C 8.398438 14.742188 8.640625 14.839844 8.898438 14.839844 C 9.15625 14.839844 9.394531 14.742188 9.578125 14.558594 C 10.230469 13.910156 10.980469 13.386719 11.8125 13.007812 L 11.808594 13.003906 " fill-opacity="1" fill-rule="nonzero"/><path fill="#05a9e3" d="M 14.167969 16.050781 L 14.164062 16.046875 L 12.917969 14.4375 L 12.914062 14.433594 C 12.863281 14.449219 12.808594 14.472656 12.757812 14.492188 C 12.074219 14.785156 11.457031 15.199219 10.929688 15.726562 C 10.75 15.90625 10.648438 16.148438 10.648438 16.402344 C 10.648438 16.660156 10.75 16.902344 10.929688 17.085938 C 11.113281 17.265625 11.351562 17.367188 11.609375 17.367188 C 11.867188 17.367188 12.109375 17.265625 12.289062 17.085938 C 12.640625 16.734375 13.050781 16.457031 13.507812 16.265625 C 13.722656 16.171875 13.945312 16.101562 14.167969 16.050781 " fill-opacity="1" fill-rule="nonzero"/><path fill="#05a9e3" d="M 17.242188 14.492188 C 17.128906 14.445312 17.015625 14.402344 16.902344 14.363281 L 16.90625 14.371094 L 19.027344 17.113281 L 19.03125 17.117188 C 19.046875 17.109375 19.058594 17.09375 19.070312 17.085938 C 19.25 16.902344 19.351562 16.660156 19.351562 16.402344 C 19.351562 16.148438 19.25 15.90625 19.070312 15.726562 C 18.542969 15.199219 17.925781 14.78125 17.242188 14.492188 " fill-opacity="1" fill-rule="nonzero"/><path fill="#05a9e3" d="M 13.644531 19.003906 C 13.300781 19.351562 13.085938 19.832031 13.085938 20.359375 C 13.085938 21.414062 13.945312 22.273438 15 22.273438 C 16.054688 22.273438 16.914062 21.414062 16.914062 20.359375 C 16.914062 19.832031 16.699219 19.351562 16.355469 19.003906 C 16.699219 19.351562 16.914062 19.832031 16.914062 20.359375 C 16.914062 21.414062 16.054688 22.273438 15 22.273438 C 13.945312 22.273438 13.085938 21.414062 13.085938 20.359375 C 13.085938 19.832031 13.300781 19.351562 13.644531 19.003906 Z M 13.082031 20.359375 C 13.082031 21.417969 13.941406 22.277344 15 22.277344 C 16.058594 22.277344 16.917969 21.417969 16.917969 20.359375 C 16.917969 19.300781 16.058594 18.441406 15 18.441406 C 13.941406 18.441406 13.082031 19.300781 13.082031 20.359375 " fill-opacity="1" fill-rule="nonzero"/><g clip-path="url(#9a415af4dd)"><path fill="#05a9e3" d="M 26.972656 16.042969 C 26.628906 18.753906 25.414062 21.199219 23.464844 23.117188 L 23.3125 23.261719 L 18.707031 17.3125 L 18.703125 17.304688 L 16.292969 14.191406 L 16.289062 14.1875 L 14.839844 12.316406 L 14.835938 12.3125 L 13.453125 10.523438 L 13.449219 10.519531 L 11.90625 8.523438 L 11.90625 8.519531 L 10.65625 6.90625 C 10.71875 6.886719 10.785156 6.863281 10.847656 6.84375 C 10.910156 6.820312 10.972656 6.804688 11.035156 6.78125 L 11.039062 6.78125 L 12.300781 8.417969 L 12.304688 8.421875 C 13.183594 8.210938 14.085938 8.101562 15 8.101562 C 16.550781 8.101562 18.058594 8.410156 19.480469 9.011719 C 20.851562 9.589844 22.082031 10.417969 23.132812 11.472656 C 23.316406 11.652344 23.558594 11.753906 23.816406 11.753906 C 24.070312 11.753906 24.3125 11.652344 24.492188 11.472656 C 24.675781 11.289062 24.773438 11.050781 24.773438 10.792969 C 24.773438 10.535156 24.675781 10.292969 24.492188 10.113281 C 23.265625 8.882812 21.828125 7.917969 20.230469 7.242188 C 18.566406 6.535156 16.804688 6.179688 15 6.179688 C 13.644531 6.179688 12.316406 6.378906 11.035156 6.777344 C 10.96875 6.796875 10.90625 6.816406 10.84375 6.839844 C 10.78125 6.859375 10.714844 6.878906 10.652344 6.90625 L 8.621094 4.273438 L 8.800781 4.164062 C 11.144531 2.757812 13.816406 2.195312 16.527344 2.542969 C 18.125 2.746094 19.632812 3.257812 20.992188 4.035156 C 22.347656 4.8125 23.554688 5.859375 24.542969 7.132812 C 26.519531 9.6875 27.378906 12.851562 26.972656 16.042969 Z M 21.199219 24.867188 C 19.304688 26.003906 17.195312 26.589844 15.027344 26.589844 C 14.511719 26.589844 13.992188 26.558594 13.472656 26.488281 C 7.386719 25.710938 2.929688 20.507812 2.929688 14.527344 C 2.929688 14.019531 2.960938 13.503906 3.027344 12.988281 C 3.371094 10.277344 4.585938 7.832031 6.535156 5.914062 L 6.6875 5.769531 L 8.363281 7.933594 L 8.367188 7.9375 L 9.550781 9.46875 L 9.554688 9.472656 L 10.957031 11.285156 L 10.960938 11.289062 L 12.167969 12.851562 L 12.171875 12.855469 L 13.289062 14.300781 L 13.292969 14.304688 L 14.589844 15.980469 L 14.59375 15.984375 L 21.378906 24.757812 Z M 16.835938 0.117188 C 16.214844 0.0390625 15.59375 0 14.976562 0 C 11.785156 0 8.695312 1.050781 6.125 3.042969 C 3.054688 5.414062 1.09375 8.839844 0.601562 12.679688 C -0.410156 20.617188 5.222656 27.902344 13.164062 28.914062 C 21.101562 29.925781 28.382812 24.292969 29.398438 16.351562 C 30.410156 8.414062 24.777344 1.132812 16.835938 0.117188 " fill-opacity="1" fill-rule="nonzero"/></g></svg>