<svg xmlns="http://www.w3.org/2000/svg" xmlns:xlink="http://www.w3.org/1999/xlink" width="40" zoomAndPan="magnify" viewBox="0 0 30 30.000001" height="40" preserveAspectRatio="xMidYMid meet" version="1.0"><defs><clipPath id="78f1c65c1a"><path d="M 4.164062 1.832031 L 29.296875 1.832031 L 29.296875 21.824219 L 4.164062 21.824219 Z M 4.164062 1.832031 " clip-rule="nonzero"/></clipPath><clipPath id="337858711d"><path d="M 1.027344 0 L 24.816406 0 L 24.816406 29.03125 L 1.027344 29.03125 Z M 1.027344 0 " clip-rule="nonzero"/></clipPath></defs><g clip-path="url(#78f1c65c1a)"><path fill="#05a9e3" d="M 26.796875 2.078125 C 26.53125 1.816406 26.101562 1.816406 25.835938 2.078125 C 25.835938 2.078125 14.378906 13.398438 12.421875 15.332031 C 12.261719 15.488281 12.007812 15.488281 11.851562 15.332031 L 7.667969 11.199219 C 7.402344 10.9375 6.972656 10.941406 6.707031 11.203125 L 4.421875 13.464844 C 4.15625 13.726562 4.15625 14.152344 4.421875 14.414062 L 11.691406 21.578125 C 11.941406 21.820312 12.339844 21.820312 12.585938 21.578125 L 29.097656 5.304688 C 29.363281 5.042969 29.363281 4.617188 29.097656 4.355469 L 26.796875 2.078125 " fill-opacity="1" fill-rule="nonzero"/></g><g clip-path="url(#337858711d)"><path fill="#05a9e3" d="M 12.140625 22.949219 C 11.648438 22.949219 11.191406 22.757812 10.84375 22.417969 L 3.570312 15.253906 C 2.835938 14.53125 2.835938 13.351562 3.570312 12.625 L 5.855469 10.363281 C 6.210938 10.011719 6.683594 9.816406 7.1875 9.816406 C 7.6875 9.816406 8.160156 10.007812 8.515625 10.359375 L 12.136719 13.933594 C 14.101562 11.992188 19.042969 7.109375 22.195312 3.996094 C 22.128906 3.953125 22.058594 3.910156 21.992188 3.867188 C 20.980469 3.25 19.9375 2.671875 18.871094 2.144531 C 17.90625 1.671875 16.914062 1.238281 15.902344 0.863281 C 15.03125 0.542969 13.867188 0 12.925781 0 C 12.046875 0 10.960938 0.5 10.144531 0.792969 C 9.132812 1.15625 8.140625 1.585938 7.171875 2.054688 C 6.101562 2.574219 5.054688 3.144531 4.039062 3.761719 C 3.1875 4.273438 2.351562 5.027344 1.425781 5.386719 C 1.269531 5.445312 1.171875 5.558594 1.160156 5.730469 C 0.898438 10.515625 0.855469 15.578125 2.675781 20.105469 C 3.519531 22.199219 4.777344 24.117188 6.472656 25.632812 C 7.394531 26.449219 8.421875 27.148438 9.515625 27.71875 C 10.457031 28.207031 11.832031 28.984375 12.921875 29.023438 C 12.96875 29.035156 13.019531 29.035156 13.074219 29.023438 C 13.109375 29.015625 13.140625 29.007812 13.167969 28.996094 C 17.910156 27.507812 21.570312 24.378906 23.324219 19.726562 C 24.347656 17.007812 24.726562 14.113281 24.808594 11.210938 L 13.4375 22.417969 C 13.089844 22.757812 12.628906 22.949219 12.140625 22.949219 " fill-opacity="1" fill-rule="nonzero"/></g></svg>